<?xml version="1.0" encoding="UTF-8"?>
<svg id="Capa_1" data-name="Capa 1" xmlns="http://www.w3.org/2000/svg" xmlns:xlink="http://www.w3.org/1999/xlink" viewBox="0 0 1560 1560">
  <defs>
    <style>
      .cls-1 {
        fill: none;
      }

      .cls-2 {
        fill: url(#linear-gradient);
      }

      .cls-3 {
        clip-path: url(#clippath);
      }

      .cls-4 {
        fill: #69a7e3;
      }

      .cls-5 {
        clip-path: url(#clippath-1);
      }

      .cls-6 {
        fill: url(#linear-gradient-2);
      }
    </style>
    <clipPath id="clippath">
      <path class="cls-1" d="M328.73,852.68c-57.16-24.07-85.74-55.62-85.73-87.15v176.46c0,49.43,28.57,91.6,85.73,115.68l333.75,140.5c81.67,34.38,147.85-9.57,147.85-98.18v-330.08l-175.26,73.8v137.92l-306.34-128.96"/>
    </clipPath>
    <linearGradient id="linear-gradient" x1="416.53" y1="2444.59" x2="429.77" y2="2444.59" gradientTransform="translate(162441.86 -26866.65) rotate(90) scale(66.23)" gradientUnits="userSpaceOnUse">
      <stop offset="0" stop-color="#7dd1ec"/>
      <stop offset=".27" stop-color="#6eb8e1"/>
      <stop offset=".83" stop-color="#497bc7"/>
      <stop offset="1" stop-color="#3e68bf"/>
    </linearGradient>
    <clipPath id="clippath-1">
      <path class="cls-1" d="M635.07,423.94v125.47l-306.34,128.98c-57.15,24.07-85.73,55.59-85.73,87.13-.01,31.54,28.57,63.08,85.73,87.15l36.45,15.34,422.16-177.74c12.71-5.33,23-20.85,23-34.63V350.14c-58.42,24.6-116.84,49.2-175.26,73.8Z"/>
    </clipPath>
    <linearGradient id="linear-gradient-2" x1="408.24" y1="2476.68" x2="422.57" y2="2476.68" gradientTransform="translate(28533.82 167371.06) rotate(-180) scale(67.32)" xlink:href="#linear-gradient"/>
  </defs>
  <g>
    <g class="cls-3">
      <rect class="cls-2" x="209.12" y="651.89" width="635.08" height="694.29" transform="translate(-593.14 1145.65) rotate(-69.66)"/>
    </g>
    <g class="cls-5">
      <rect class="cls-6" x="194.03" y="291.42" width="741.74" height="693.11" transform="translate(-263.74 439.27) rotate(-34.99)"/>
    </g>
  </g>
  <g>
    <path class="cls-1" d="M1124.63,673.41c0,13.24-2.6,25.83-7.38,37.34-4.99,11.72-12.16,22.58-21.28,31.48-8.9,8.9-19.75,16.28-31.47,21.06-6.92,2.82-14.16,4.67-21.58,5.95,1,6.58,2.34,13.04,4.08,19.34,1.77,.17,3.59,.09,5.34,.32,8.25,1.3,16.28,2.82,24.31,5.21,8.04,2.17,15.85,4.99,23.23,8.25,7.38,3.26,14.54,6.95,21.49,11.29,52.39,32.81,61.78,57.88,62.88,95.24,7.56,1.06,15.23,1.8,23.09,1.8,22.58,0,44.28-4.56,63.82-12.59,20.19-8.47,38.64-20.84,54.05-36.25,15.2-15.19,27.57-33.65,36.04-54.05,8.25-19.54,12.81-41.03,12.81-63.39s-4.56-44.07-12.81-63.61c-8.47-20.41-20.84-38.86-36.04-54.05-15.41-15.41-33.87-27.79-54.05-36.25-19.54-8.03-41.25-12.59-63.82-12.59s-44.07,4.56-63.6,12.59c-14.48,6.01-27.8,14.07-39.86,23.7,5.29,6.81,10,14.04,13.38,22.11,4.78,11.51,7.38,24.1,7.38,37.12Zm71.86,70.12v-132.85c0-4.99,4.12-8.9,8.9-8.9h4.12c4.78,0,8.68,3.91,8.68,8.9v122.43h87.05c4.78,0,8.9,4.13,8.9,8.9v3.91c0,4.99-4.12,8.9-8.9,8.9h-99.86c-4.78,0-8.9-3.91-8.9-8.9v-2.39Z"/>
    <path class="cls-4" d="M1381.44,672.33c-9.55-22.79-23.66-43.63-41.03-61-17.37-17.37-37.99-31.26-61-40.81-22.36-9.12-46.67-14.33-72.07-14.33s-49.71,5.21-71.86,14.33c-17.06,7.08-32.79,16.57-46.87,28.07,2.46,2.01,5.13,3.78,7.36,6.01,2.96,2.96,5.36,6.32,7.9,9.59,12.06-9.63,25.38-17.69,39.86-23.7,19.54-8.03,41.03-12.59,63.6-12.59s44.28,4.56,63.82,12.59c20.19,8.47,38.64,20.84,54.05,36.25,15.2,15.2,27.57,33.65,36.04,54.05,8.25,19.54,12.81,41.03,12.81,63.61s-4.56,43.85-12.81,63.39c-8.47,20.41-20.84,38.86-36.04,54.05-15.41,15.41-33.87,27.79-54.05,36.25-19.54,8.03-41.25,12.59-63.82,12.59-7.86,0-15.53-.74-23.09-1.8,.2,6.84,.12,14.16-.02,21.94,7.6,.93,15.28,1.57,23.11,1.57,25.4,0,49.71-4.99,72.07-14.33,23.01-9.55,43.63-23.45,61-40.81,17.37-17.37,31.47-37.99,41.03-61,9.12-22.14,14.33-46.45,14.33-71.85s-5.21-49.71-14.33-72.07Z"/>
    <path class="cls-4" d="M1042.93,769.24c-5.15,.89-10.34,1.65-15.76,1.65-2.05,0-3.99-.5-6.01-.63,.83,5.86,1.9,11.64,3.25,17.32,.93-.01,1.83-.19,2.76-.19,6.67,0,13.28,.55,19.85,1.2"/>
    <path class="cls-4" d="M1205.39,733.11h12.81v-122.43c0-4.99-3.91-8.9-8.68-8.9h-4.12c-4.78,0-8.9,3.91-8.9,8.9v131.34c0-4.78,4.12-8.9,8.9-8.9Z"/>
    <path class="cls-4" d="M1205.39,754.82h99.86c4.78,0,8.9-3.91,8.9-8.9v-3.91c0-4.78-4.12-8.9-8.9-8.9h-99.86c-4.78,0-8.9,4.13-8.9,8.9v3.91c0,4.99,4.12,8.9,8.9,8.9Z"/>
    <path class="cls-4" d="M1042.93,769.24c7.42-1.28,14.66-3.13,21.58-5.95,11.72-4.78,22.58-12.16,31.47-21.06,9.12-8.9,16.28-19.75,21.28-31.48,4.78-11.51,7.38-24.1,7.38-37.34s-2.6-25.62-7.38-37.12c-3.38-8.07-8.09-15.3-13.38-22.11-2.54-3.27-4.94-6.63-7.9-9.59-2.23-2.23-4.9-4.01-7.36-6.01-7.35-6-15.33-11.3-24.12-15.05-11.72-4.78-24.1-7.38-37.34-7.38s-25.61,2.61-37.12,7.38c-11.94,4.99-22.58,12.16-31.69,21.06-8.9,9.12-16.28,19.75-21.06,31.69-4.78,11.51-7.6,24.1-7.6,37.12s2.82,25.83,7.6,37.34c4.78,11.72,12.16,22.58,21.06,31.48,9.12,8.9,19.75,16.28,31.69,21.06,9.7,4.03,20.26,6.24,31.12,6.97,2.02,.14,3.96,.63,6.01,.63,5.42,0,10.62-.76,15.76-1.65Zm-69.16-42.2c-7.16-7.16-12.59-15.41-16.5-24.75-3.69-8.9-5.86-18.45-5.86-28.87s2.17-19.97,5.86-28.87c3.91-9.33,9.34-17.58,16.5-24.53,6.95-6.95,15.19-12.59,24.53-16.5,8.9-3.69,18.67-5.64,28.87-5.64s20.19,1.95,29.09,5.64c9.12,3.91,17.59,9.55,24.53,16.5,6.95,6.95,12.59,15.19,16.5,24.53,3.69,8.9,5.65,18.67,5.65,28.87s-1.95,19.97-5.65,28.87c-3.91,9.33-9.55,17.58-16.5,24.75-6.95,6.95-15.41,12.59-24.53,16.28-8.9,3.69-18.67,5.86-29.09,5.86s-19.97-2.17-28.87-5.86c-9.33-3.69-17.58-9.33-24.53-16.28Z"/>
    <path class="cls-4" d="M1184.25,908.89c-1.1-37.36-10.49-62.43-62.88-95.24-6.95-4.34-14.11-8.03-21.49-11.29-7.38-3.26-15.19-6.08-23.23-8.25-8.03-2.39-16.06-3.91-24.31-5.21-1.75-.23-3.57-.15-5.34-.32-6.57-.65-13.17-1.2-19.85-1.2-.93,0-1.83,.18-2.76,.19-7.54,.09-15.08,.39-22.43,1.55-8.47,1.08-16.71,2.82-24.74,4.99-8.03,2.17-15.85,4.99-23.23,8.47-7.38,3.26-14.76,6.95-21.71,11.51-64.04,40.38-63.39,69.03-62.74,125.04v.22c.22,4.78,.22,9.77,.22,14.76v1.08l.22,1.74,.22,1.08c1.74,8.47,9.12,15.85,20.62,21.71,9.98,4.99,23.44,9.55,39.29,13.03,13.89,3.04,29.74,5.64,46.45,7.6,15.63,1.74,32.56,3.04,49.93,3.47h.87c17.15-.43,34.08-1.74,49.93-3.47,16.71-1.95,32.56-4.56,46.45-7.6,15.63-3.47,29.31-8.03,39.08-13.03,11.5-5.86,18.88-13.24,20.62-21.71l.22-1.08,.22-1.74v-9.77c.22-2.61,.22-5.64,.22-8.47,.04-2.1,.08-4.1,.11-6.12,.14-7.78,.23-15.1,.02-21.94Zm-21.85,36.1c0,2.82-.22,5.65-.22,8.47v.43c-.65,1.74-3.91,3.91-9.11,6.51-8.25,4.34-19.97,8.03-34.08,11.07-12.81,3.04-27.79,5.43-44.28,7.38-15.41,1.74-31.48,2.82-47.54,3.26h-.43c-16.07-.43-32.35-1.52-47.76-3.26-16.28-1.95-31.47-4.34-44.28-7.38-14.11-3.04-25.83-6.73-33.87-11.07-5.42-2.6-8.68-4.78-9.33-6.51v-.43c0-4.99-.22-9.77-.22-14.33v-.22c-.65-47.97-1.08-72.51,52.53-106.59,6.08-3.69,12.37-7.16,18.89-9.99,6.73-3.04,13.46-5.43,20.41-7.38,7.16-1.95,14.54-3.47,21.71-4.56,7.38-.87,14.98-1.52,22.36-1.52s14.76,.65,22.14,1.52c7.38,1.08,14.54,2.6,21.71,4.56,6.73,1.95,13.68,4.34,20.19,7.16,6.73,2.82,12.81,6.3,18.89,9.99,53.84,33.65,53.4,57.96,52.53,104.42-.22,2.61-.22,5.43-.22,8.47Z"/>
  </g>
</svg>