<?xml version="1.0" encoding="UTF-8"?>
<svg id="Capa_1" data-name="Capa 1" xmlns="http://www.w3.org/2000/svg" viewBox="0 0 1560 1560">
  <defs>
    <style>
      .cls-1, .cls-2 {
        fill: none;
      }

      .cls-3 {
        fill: #69a7e3;
      }

      .cls-4 {
        fill: #65a7dd;
      }

      .cls-5 {
        stroke-width: .96px;
      }

      .cls-5, .cls-6, .cls-7 {
        fill: #434551;
        stroke: #434551;
        stroke-miterlimit: 10;
      }

      .cls-6 {
        stroke-width: .97px;
      }

      .cls-7 {
        stroke-width: .96px;
      }

      .cls-2 {
        stroke: #29abe2;
        stroke-linecap: round;
        stroke-linejoin: round;
        stroke-width: 19.1px;
      }
    </style>
  </defs>
  <g>
    <line class="cls-2" x1="816.91" y1="355.5" x2="816.91" y2="355.5"/>
    <path class="cls-2" d="M1127.63,995.4c-20.41,20.41-53.51,20.41-73.93,0-20.41-20.41-20.41-53.51,0-73.93l24.64-24.64c20.41-20.41,53.51-20.41,73.93,0,20.41,20.41,20.41,53.51,0,73.93l-24.64,24.64Z"/>
    <path class="cls-2" d="M1109.18,875.43c-20.41,20.41-53.51,20.41-73.93,0-20.41-20.41-20.41-53.51,0-73.93l43.1-43.1c20.41-20.41,53.51-20.41,73.93,0,20.41,20.41,20.41,53.51,0,73.93l-43.1,43.1Z"/>
    <path class="cls-2" d="M1090.72,746.23c-20.41,20.41-53.51,20.41-73.93,0-20.41-20.41-20.41-53.51,0-73.93l61.56-61.56c20.41-20.41,53.51-20.41,73.93,0,20.41,20.41,20.41,53.51,0,73.93l-61.56,61.56Z"/>
    <path class="cls-2" d="M1056.85,595.43l132.35-132.28c20.4-20.4,20.4-53.49,0-73.89-20.41-20.41-53.49-20.41-73.89,0l-58.46,58.46"/>
    <line class="cls-2" x1="853.83" y1="1019.93" x2="780" y2="1019.93"/>
    <path class="cls-2" d="M576.98,835.37c55.24-165.73,72.04-312.34-4.68-356.68-23.07-13.33-51.7,4.01-53.92,30.56-9.84,117.91-52.64,197.95-85.64,243.41-26.8,36.91-40.33,81.78-40.33,127.4v94c0,29.37-11.67,57.54-32.44,78.31l-4.48,4.48"/>
    <path class="cls-2" d="M1056.85,632.35V355.5c0-40.77-33.05-73.83-73.83-73.83h-332.22c-40.77,0-73.83,33.05-73.83,73.83v126.55c71.03,47.73,54.02,191.24,0,353.32v221.48c0,40.77,33.05,73.83,73.83,73.83h332.22c40.77,0,73.83-33.05,73.83-73.83v-58.51"/>
    <path class="cls-2" d="M908.25,1130.67c-49.8,58.56-120.62,98.69-200.85,108.44-25.51,3.1-49.52,13.69-67.69,31.86l-7.35,7.35"/>
  </g>
  <g>
    <path class="cls-1" d="M815.23,675.07c0,7.7-1.51,15.01-4.29,21.7-2.9,6.81-7.07,13.12-12.37,18.3-5.17,5.17-11.48,9.46-18.29,12.24-4.02,1.64-8.23,2.72-12.54,3.46,.58,3.82,1.36,7.58,2.37,11.24,1.03,.1,2.09,.05,3.1,.19,4.8,.76,9.46,1.64,14.13,3.03,4.67,1.26,9.21,2.9,13.5,4.8,4.29,1.89,8.45,4.04,12.49,6.56,30.45,19.07,35.91,33.64,36.55,55.36,4.4,.62,8.85,1.05,13.42,1.05,13.12,0,25.74-2.65,37.1-7.32,11.73-4.92,22.46-12.11,31.42-21.07,8.83-8.83,16.02-19.56,20.94-31.42,4.79-11.36,7.44-23.85,7.44-36.84s-2.65-25.61-7.44-36.97c-4.92-11.86-12.11-22.59-20.94-31.42-8.96-8.96-19.68-16.15-31.42-21.07-11.36-4.67-23.97-7.32-37.1-7.32s-25.61,2.65-36.97,7.32c-8.42,3.49-16.16,8.18-23.17,13.77,3.08,3.96,5.82,8.16,7.78,12.85,2.78,6.69,4.29,14.01,4.29,21.58Zm41.76,40.75v-77.22c0-2.9,2.4-5.17,5.17-5.17h2.4c2.78,0,5.05,2.27,5.05,5.17v71.16h50.6c2.78,0,5.17,2.4,5.17,5.17v2.27c0,2.9-2.4,5.17-5.17,5.17h-58.04c-2.78,0-5.17-2.27-5.17-5.17v-1.39Z"/>
    <path class="cls-6" d="M964.5,674.44c-5.55-13.25-13.75-25.36-23.85-35.46-10.09-10.09-22.08-18.17-35.46-23.72-12.99-5.3-27.13-8.33-41.89-8.33s-28.9,3.03-41.76,8.33c-9.92,4.12-19.06,9.63-27.24,16.32,1.43,1.17,2.98,2.2,4.28,3.49,1.72,1.72,3.12,3.67,4.59,5.57,7.01-5.6,14.75-10.28,23.17-13.77,11.35-4.67,23.85-7.32,36.97-7.32s25.74,2.65,37.1,7.32c11.73,4.92,22.46,12.11,31.42,21.07,8.83,8.83,16.02,19.56,20.94,31.42,4.79,11.36,7.44,23.85,7.44,36.97s-2.65,25.49-7.44,36.84c-4.92,11.86-12.11,22.59-20.94,31.42-8.96,8.96-19.68,16.15-31.42,21.07-11.36,4.67-23.97,7.32-37.1,7.32-4.57,0-9.03-.43-13.42-1.05,.12,3.97,.07,8.23-.01,12.75,4.42,.54,8.88,.91,13.44,.91,14.76,0,28.9-2.9,41.89-8.33,13.38-5.55,25.36-13.63,35.46-23.72,10.09-10.09,18.29-22.08,23.85-35.46,5.3-12.87,8.33-27,8.33-41.76s-3.03-28.89-8.33-41.89Z"/>
    <path class="cls-6" d="M770.11,742.01c-1.01-3.67-1.79-7.42-2.37-11.24-2.99,.52-6.01,.96-9.16,.96-1.19,0-2.32-.29-3.49-.37,.48,3.41,1.1,6.77,1.89,10.07,.54,0,1.06-.11,1.6-.11,3.88,0,7.72,.32,11.54,.7Z"/>
    <path class="cls-6" d="M862.17,709.77h7.44v-71.16c0-2.9-2.27-5.17-5.05-5.17h-2.4c-2.78,0-5.17,2.27-5.17,5.17v76.34c0-2.78,2.4-5.17,5.17-5.17Z"/>
    <path class="cls-6" d="M862.17,722.39h58.04c2.78,0,5.17-2.27,5.17-5.17v-2.27c0-2.78-2.4-5.17-5.17-5.17h-58.04c-2.78,0-5.17,2.4-5.17,5.17v2.27c0,2.9,2.4,5.17,5.17,5.17Z"/>
    <path class="cls-3" d="M767.74,730.77c4.31-.74,8.52-1.82,12.54-3.46,6.81-2.78,13.12-7.07,18.29-12.24,5.3-5.17,9.46-11.48,12.37-18.3,2.78-6.69,4.29-14.01,4.29-21.7s-1.51-14.89-4.29-21.58c-1.96-4.69-4.7-8.89-7.78-12.85-1.47-1.9-2.87-3.85-4.59-5.57-1.29-1.3-2.85-2.33-4.28-3.49-4.27-3.49-8.91-6.57-14.02-8.75-6.81-2.78-14.01-4.29-21.7-4.29s-14.89,1.51-21.58,4.29c-6.94,2.9-13.12,7.07-18.42,12.24-5.17,5.3-9.46,11.48-12.24,18.42-2.78,6.69-4.42,14.01-4.42,21.58s1.64,15.01,4.42,21.7c2.78,6.81,7.07,13.12,12.24,18.3,5.3,5.17,11.48,9.46,18.42,12.24,5.64,2.34,11.78,3.63,18.09,4.05,1.17,.08,2.3,.37,3.49,.37,3.15,0,6.17-.44,9.16-.96Zm-40.2-24.53c-4.16-4.16-7.32-8.96-9.59-14.38-2.14-5.17-3.41-10.73-3.41-16.78s1.26-11.61,3.41-16.78c2.27-5.43,5.43-10.22,9.59-14.26,4.04-4.04,8.83-7.32,14.26-9.59,5.17-2.14,10.85-3.28,16.78-3.28s11.74,1.14,16.91,3.28c5.3,2.27,10.22,5.55,14.26,9.59,4.04,4.04,7.32,8.83,9.59,14.26,2.15,5.17,3.28,10.85,3.28,16.78s-1.14,11.61-3.28,16.78c-2.27,5.43-5.55,10.22-9.59,14.38-4.04,4.04-8.96,7.32-14.26,9.46-5.17,2.14-10.85,3.41-16.91,3.41s-11.61-1.26-16.78-3.41c-5.42-2.15-10.22-5.43-14.26-9.46Z"/>
    <path class="cls-3" d="M849.88,811.94c-.64-21.72-6.1-36.29-36.55-55.36-4.04-2.52-8.2-4.67-12.49-6.56-4.29-1.89-8.83-3.53-13.5-4.8-4.67-1.39-9.33-2.27-14.13-3.03-1.02-.13-2.07-.09-3.1-.19-3.82-.38-7.66-.7-11.54-.7-.54,0-1.06,.1-1.6,.11-4.38,.05-8.76,.22-13.03,.9-4.92,.63-9.72,1.64-14.38,2.9-4.67,1.26-9.21,2.9-13.5,4.92-4.29,1.89-8.58,4.04-12.62,6.69-37.22,23.47-36.84,40.12-36.47,72.68v.13c.13,2.78,.13,5.68,.13,8.58v.63l.13,1.01,.13,.63c1.01,4.92,5.3,9.21,11.99,12.62,5.8,2.9,13.63,5.55,22.84,7.57,8.07,1.77,17.29,3.28,27,4.42,9.09,1.01,18.93,1.77,29.02,2.02h.5c9.97-.25,19.81-1.01,29.02-2.02,9.72-1.14,18.93-2.65,27-4.42,9.08-2.02,17.03-4.67,22.71-7.57,6.69-3.41,10.98-7.7,11.99-12.62l.13-.63,.13-1.01v-5.68c.13-1.51,.13-3.28,.13-4.92,.03-1.22,.05-2.38,.07-3.56,.08-4.52,.13-8.78,.01-12.75Zm-12.7,20.98c0,1.64-.13,3.28-.13,4.92v.25c-.38,1.01-2.27,2.27-5.3,3.78-4.79,2.52-11.61,4.67-19.81,6.43-7.44,1.77-16.15,3.15-25.74,4.29-8.96,1.01-18.3,1.64-27.63,1.89h-.25c-9.34-.25-18.8-.88-27.76-1.89-9.46-1.14-18.29-2.52-25.74-4.29-8.2-1.77-15.01-3.91-19.68-6.43-3.15-1.51-5.05-2.78-5.42-3.78v-.25c0-2.9-.13-5.68-.13-8.33v-.13c-.38-27.88-.63-42.14,30.54-61.95,3.53-2.15,7.19-4.16,10.98-5.8,3.91-1.77,7.82-3.15,11.86-4.29,4.16-1.14,8.45-2.02,12.62-2.65,4.29-.5,8.71-.88,13-.88s8.58,.38,12.87,.88c4.29,.63,8.45,1.51,12.62,2.65,3.91,1.14,7.95,2.52,11.73,4.16,3.91,1.64,7.44,3.66,10.98,5.8,31.29,19.56,31.04,33.69,30.54,60.69-.13,1.51-.13,3.15-.13,4.92Z"/>
  </g>
  <g>
    <path class="cls-7" d="M679.51,465.17h-11.57c-4.45,0-8.07-3.63-8.08-8.08v-14.26s5.59,0,5.59,0v14.25c0,1.37,1.12,2.49,2.5,2.49h11.57c7.72,0,14-6.31,13.99-14.04,0-3.75-1.47-7.26-4.12-9.91-2.65-2.64-6.16-4.09-9.9-4.09h-.03l-19.59-.03v-5.59s19.58,.03,19.58,.03h.04c5.23,0,10.14,2.03,13.84,5.72,3.71,3.7,5.76,8.62,5.77,13.86,.02,10.81-8.76,19.63-19.58,19.65Z"/>
    <path class="cls-7" d="M744.16,459.57h-26.59s0,0,0,0c-1.13,0-2.2-.44-3-1.24-.8-.8-1.25-1.87-1.25-3.01v-2.69c0-2.34,1.91-4.25,4.25-4.25h26.57s0-5.6,0-5.6h-26.58c-5.43,0-9.84,4.43-9.84,9.86v2.69c0,2.63,1.03,5.11,2.89,6.97,1.86,1.86,4.33,2.88,6.96,2.88h.02l26.59-.03v-5.57Zm-.08-28.03v-5.6s-36.38-.02-36.38-.02v5.6s36.38,.03,36.38,.03Z"/>
    <path class="cls-7" d="M780.76,442.7h-16.91c-3.1,0-5.63-2.53-5.63-5.63v-5.5h-5.6v5.5c0,6.19,5.04,11.22,11.22,11.22h16.91c1.47,0,2.85,.57,3.89,1.61,1.04,1.04,1.61,2.42,1.61,3.89v.14c0,3.1-2.52,5.63-5.63,5.63h-27.99v5.6h27.99c6.19,0,11.22-5.04,11.22-11.22v-.14c0-2.97-1.15-5.75-3.25-7.85-2.1-2.1-4.88-3.25-7.85-3.25Zm-13.94-16.79v5.6h25.04v-5.6h-25.04Z"/>
    <path class="cls-4" d="M862.35,465.17v-25.26s5.59,0,5.59,0v25.26s-5.59,0-5.59,0Zm-15.3-39.22l52.18-.04v5.6s-52.17,.04-52.17,.04v-5.6Z"/>
    <path class="cls-5" d="M838.4,435.51v-9.6h-5.6v9.6c0,3.36-1.31,6.52-3.68,8.89-2.38,2.38-5.53,3.68-8.89,3.68h0c-6.93,0-12.57-5.64-12.57-12.57v-9.61h-5.6v9.61c0,9.07,6.68,16.6,15.37,17.95v11.7s5.6,0,5.6,0v-11.69c3.78-.58,7.28-2.34,10.05-5.11,3.43-3.43,5.32-8,5.32-12.85Z"/>
    <path class="cls-4" d="M923.85,459.57h-26.59s0,0,0,0c-1.13,0-2.2-.44-3-1.24-.8-.8-1.25-1.87-1.25-3.01v-2.69c0-2.34,1.91-4.25,4.25-4.25h26.57s0-5.6,0-5.6h-26.58c-5.43,0-9.84,4.43-9.84,9.86v2.69c0,2.63,1.03,5.11,2.89,6.97,1.86,1.86,4.33,2.88,6.96,2.88h.02l26.59-.03v-5.57Zm-.08-28.03v-5.6s-36.38-.02-36.38-.02v5.6s36.38,.03,36.38,.03Z"/>
    <path class="cls-4" d="M952.36,464.66c-10.76,0-19.52-8.78-19.54-19.6,0-5.24,2.01-10.17,5.69-13.88,3.68-3.72,8.59-5.77,13.81-5.78l16.81,.05v5.58s-16.8-.03-16.8-.03c-3.72,0-7.22,1.47-9.85,4.12-2.63,2.65-4.08,6.18-4.07,9.93,.01,7.73,6.27,14,13.94,14.01h16.79s.02,5.57,.02,5.57l-16.77,.03h-.03Z"/>
  </g>
</svg>